Coordinates
version=1
nRows=6
nColumns=107
inDegrees=yes

Units are S.I. units (second, meters, Newtons, ...)
If the header above contains a line with 'inDegrees', this indicates whether rotational values are in degrees (yes) or radians (no).

endheader
time	sternoclavicular_r2	sternoclavicular_r3	unrotscap_r3	unrotscap_r2	acromioclavicular_r2	acromioclavicular_r3	acromioclavicular_r1	unrothum_r1	unrothum_r3	unrothum_r2	elv_angle	shoulder_elv	shoulder1_r2	shoulder_rot	elbow_flexion	pro_sup	deviation	flexion	proximal_distal_r1	proximal_distal_r3	cmc_flexion	cmc_abduction	mp_flexion	ip_flexion	mcp2_flexion	mcp2_abduction	pm2_flexion	md2_flexion	mcp3_flexion	mcp3_abduction	pm3_flexion	md3_flexion	mcp4_flexion	mcp4_abduction	pm4_flexion	md4_flexion	mcp5_flexion	mcp5_abduction	pm5_flexion	md5_flexion	bicpt_tx	bicpt_ty	bicpt_tz	bicpt2_tx	bicpt2_ty	bicpt2_tz	ptpt_tx	ptpt_ty	ptpt_tz	FCUpt_tx	FCUpt_ty	FCUpt_tz	EDCpt_tx	EDCpt_ty	EDCpt_tz	APLpt_tx	APLpt_ty	APLpt_tz	FPLpt_tx	FPLpt_ty	FPLpt_tz	FPLpt2_tx	FPLpt2_ty	FPLpt2_tz	PEC1pt2_tx	PEC1pt2_ty	PEC1pt2_tz	PEC1pt3_tx	PEC1pt3_ty	PEC1pt3_tz	PEC2pt2_tx	PEC2pt2_ty	PEC2pt2_tz	PEC2pt3_tx	PEC2pt3_ty	PEC2pt3_tz	PEC3pt2_tx	PEC3pt2_ty	PEC3pt2_tz	PEC3pt3_tx	PEC3pt3_ty	PEC3pt3_tz	DELT2pt2a_tx	DELT2pt2a_ty	DELT2pt2a_tz	DELT2pt2_tx	DELT2pt2_ty	DELT2pt2_tz	LAT1pt2_tx	LAT1pt2_ty	LAT1pt2_tz	LAT1pt3_tx	LAT1pt3_ty	LAT1pt3_tz	LAT2pt2_tx	LAT2pt2_ty	LAT2pt2_tz	LAT2pt3_tx	LAT2pt3_ty	LAT2pt3_tz	LAT3pt2_tx	LAT3pt2_ty	LAT3pt2_tz	LAT3pt3_tx	LAT3pt3_ty	LAT3pt3_tz
      0.76666667	     -0.31711866	      0.13431650	     -0.13431650	      0.31711866	     -0.06421008	      0.51892326	      0.23325244	     -0.23325244	     -0.51892326	      0.06421008	    100.27306920	     75.08066171	     -1.75009521	    -27.39915082	     28.10502579	     18.09952604	     -0.05311741	     -1.06149972	     -0.07439709	     -0.53074986	     -7.49601783	      5.06207083	    -24.48481626	      4.48834167	     27.63738520	      5.56399198	     23.96364956	    -31.65970318	     56.92334997	      7.07553615	     86.00886884	     69.74310925	     64.27667949	     -7.92873098	     88.56269099	     41.69566768	     19.89223025	    -10.18720612	    -14.54607326	      5.17267030	      0.00082963	     -0.03082127	     -0.00481886	      0.01598487	     -0.01783487	     -0.00947171	      0.00621265	     -0.06576475	     -0.00150801	      0.00564934	     -0.18388255	     -0.00005036	     -0.00217194	      0.00056337	      0.00017367	      0.00014244	      0.00005698	      0.00028488	      0.00018232	      0.00054696	      0.00030767	     -0.00075662	      0.00021862	      0.00026234	      0.00246098	      0.00863428	      0.00600646	     -0.00805032	      0.01943757	     -0.01843649	      0.00246098	      0.00863428	      0.00600646	      0.00054225	      0.01801937	     -0.00946851	      0.00390660	      0.00480142	      0.01586570	      0.00000000	      0.00753738	      0.00000000	     -0.00704925	     -0.03257669	     -0.00621352	      0.01767989	     -0.00066932	     -0.00627454	     -0.00087594	      0.01468245	     -0.00600646	      0.00241927	      0.02118945	     -0.01751884	     -0.00588132	      0.01272201	     -0.00538079	     -0.01226319	      0.02686221	     -0.03007400	     -0.02302476	      0.01422363	     -0.00721609	     -0.01526641	      0.03103337	     -0.03758207
      0.80000000	     -0.31609329	      0.13388220	     -0.13388220	      0.31609329	     -0.06400246	      0.51724537	      0.23249823	     -0.23249823	     -0.51724537	      0.06400246	    100.43858349	     74.83789493	     -1.75298398	    -28.59237720	     28.31024352	     19.06697583	     -0.06172130	     -1.05834171	     -0.08688177	     -0.52917085	     -5.55429088	      3.96679877	    -24.78903099	      2.78121725	     26.63181622	      6.55476671	     31.78351188	    -28.29210027	     53.22052852	      7.63669399	     85.62179966	     65.64521133	     60.14618781	     -7.11971855	     87.37960689	     41.99080421	     17.83052172	    -10.95710746	     -3.96895947	      5.05043781	      0.00083641	     -0.03084479	     -0.00482265	      0.01603407	     -0.01789062	     -0.00939747	      0.00614117	     -0.06581098	     -0.00158595	      0.00574035	     -0.18386831	     -0.00007282	     -0.00228803	      0.00059633	      0.00017796	      0.00014482	      0.00005793	      0.00028963	      0.00018536	      0.00055609	      0.00031280	     -0.00043649	      0.00015600	      0.00018720	      0.00245302	      0.00860637	      0.00598704	     -0.00802429	      0.01937472	     -0.01837688	      0.00245302	      0.00860637	      0.00598704	      0.00054050	      0.01796111	     -0.00943790	      0.00389730	      0.00478589	      0.01584253	      0.00000000	      0.00748839	      0.00000000	     -0.00702645	     -0.03247136	     -0.00617284	      0.01824077	     -0.00070934	     -0.00682563	     -0.00087311	      0.01463498	     -0.00598704	      0.00241145	      0.02112093	     -0.01746219	     -0.00586231	      0.01268088	     -0.00536339	     -0.01222353	      0.02677536	     -0.02997676	     -0.02295031	      0.01417764	     -0.00719276	     -0.01521705	      0.03093302	     -0.03746056
      0.83333333	     -0.31565363	      0.13369598	     -0.13369598	      0.31565363	     -0.06391344	      0.51652594	      0.23217486	     -0.23217486	     -0.51652594	      0.06391344	    100.45777051	     74.73380358	     -1.75331885	    -28.91159303	     28.52535064	     18.85720403	     -0.06298075	     -1.06142720	     -0.08871999	     -0.53071360	     -3.79210190	      3.52854461	    -24.38125698	      2.91731036	     29.57307367	      7.12036219	     33.54424099	    -27.59038230	     49.92660056	      7.56195226	     83.96406029	     65.14244420	     55.56510093	     -7.01367443	     85.71460469	     41.72218353	     20.24329977	    -11.33728816	     -2.22162591	      5.32304460	      0.00084353	     -0.03086944	     -0.00482662	      0.01602358	     -0.01794905	     -0.00941368	      0.00615667	     -0.06580095	     -0.00156905	      0.00572059	     -0.18387142	     -0.00006801	     -0.00226286	      0.00058916	      0.00017707	      0.00014249	      0.00005700	      0.00028499	      0.00018239	      0.00054718	      0.00030779	     -0.00023014	      0.00010279	      0.00012335	      0.00244961	      0.00859439	      0.00597871	     -0.00801313	      0.01934777	     -0.01835132	      0.00244961	      0.00859439	      0.00597871	      0.00053974	      0.01793613	     -0.00942477	      0.00389331	      0.00477923	      0.01583255	      0.00000000	      0.00746744	      0.00000000	     -0.00701668	     -0.03242619	     -0.00615543	      0.01838760	     -0.00072012	     -0.00697613	     -0.00087190	      0.01461462	     -0.00597871	      0.00240809	      0.02109156	     -0.01743790	     -0.00585415	      0.01266324	     -0.00535593	     -0.01220653	      0.02673812	     -0.02993507	     -0.02291839	      0.01415792	     -0.00718275	     -0.01519589	      0.03089000	     -0.03740845
      0.86666667	     -0.31548379	      0.13362404	     -0.13362404	      0.31548379	     -0.06387905	      0.51624801	      0.23204993	     -0.23204993	     -0.51624801	      0.06387905	    100.35549559	     74.69359149	     -1.75153382	    -28.98473105	     28.78498725	     19.01968556	     -0.06756589	     -1.04902906	     -0.09543282	     -0.52451453	     -0.50009296	      2.00005009	    -25.45791844	      2.36628640	     28.28607959	      8.56199373	     40.85748127	    -22.35009809	     45.09909122	      8.48257832	     81.51210638	     59.21938785	     49.73137932	     -5.68026659	     82.40852401	     41.11638377	     18.34393864	    -12.11149895	      9.82766577	      5.25633139	      0.00085212	     -0.03089920	     -0.00483141	      0.01603171	     -0.01801958	     -0.00940113	      0.00614466	     -0.06580872	     -0.00158214	      0.00573589	     -0.18386901	     -0.00007174	     -0.00228236	      0.00059471	      0.00017776	      0.00015172	      0.00006069	      0.00030344	      0.00019420	      0.00058261	      0.00032772	     -0.00001667	      0.00001264	      0.00001517	      0.00244829	      0.00858977	      0.00597549	     -0.00800882	      0.01933736	     -0.01834144	      0.00244829	      0.00858977	      0.00597549	      0.00053945	      0.01792648	     -0.00941970	      0.00389177	      0.00477666	      0.01582869	      0.00000000	      0.00745935	      0.00000000	     -0.00701290	     -0.03240875	     -0.00614872	      0.01842106	     -0.00072259	     -0.00701079	     -0.00087143	      0.01460676	     -0.00597549	      0.00240680	      0.02108021	     -0.01742852	     -0.00585100	      0.01265642	     -0.00535305	     -0.01219996	      0.02672373	     -0.02991896	     -0.02290605	      0.01415030	     -0.00717889	     -0.01518771	      0.03087338	     -0.03738832
      0.90000000	     -0.31617851	      0.13391829	     -0.13391829	      0.31617851	     -0.06401972	      0.51738483	      0.23256092	     -0.23256092	     -0.51738483	      0.06401972	     99.93067223	     74.85807187	     -1.74411925	    -27.62491232	     29.12355712	     17.35500922	     -0.06561198	     -1.03532407	     -0.09256818	     -0.51766203	      2.40155225	      0.49175773	    -25.06097216	      1.08695091	     28.44412987	      9.54860981	     43.74308499	    -17.42819623	     39.91823618	      9.03418620	     77.80702309	     54.60715657	     42.83161478	     -4.62846223	     79.04657926	     41.08567044	     17.49663803	    -12.64091045	     17.94354789	      5.29150591	      0.00086332	     -0.03093800	     -0.00483767	      0.01594555	     -0.01811156	     -0.00952794	      0.00626766	     -0.06572918	     -0.00144804	      0.00557950	     -0.18389333	     -0.00003258	     -0.00208260	      0.00053820	      0.00017003	      0.00016162	      0.00006465	      0.00032325	      0.00020688	      0.00062064	      0.00034911	      0.00003965	     -0.00005685	     -0.00006822	      0.00245368	      0.00860869	      0.00598865	     -0.00802646	      0.01937994	     -0.01838183	      0.00245368	      0.00860869	      0.00598865	      0.00054064	      0.01796595	     -0.00944044	      0.00389808	      0.00478718	      0.01584446	      0.00000000	      0.00749245	      0.00000000	     -0.00702835	     -0.03248011	     -0.00617621	      0.01778743	     -0.00067686	     -0.00637743	     -0.00087334	      0.01463892	     -0.00598865	      0.00241210	      0.02112663	     -0.01746690	     -0.00586389	      0.01268430	     -0.00536483	     -0.01222683	      0.02678258	     -0.02998484	     -0.02295649	      0.01418146	     -0.00719470	     -0.01522115	      0.03094136	     -0.03747066
      0.93333333	     -0.31622389	      0.13393751	     -0.13393751	      0.31622389	     -0.06402890	      0.51745909	      0.23259430	     -0.23259430	     -0.51745909	      0.06402890	     99.71026480	     74.86881628	     -1.74027242	    -27.32146935	     29.45333851	     16.99801182	     -0.06997922	     -1.02338122	     -0.09897993	     -0.51169061	      5.96669659	     -0.96148364	    -25.01063400	      1.34219876	     28.82336074	     10.30297253	     44.93632057	    -15.89587192	     35.60302159	      9.41764013	     71.09919715	     51.85345922	     36.22440340	     -3.90776472	     74.00566330	     39.78492773	     18.16441851	    -12.97722946	     21.45437921	      5.50523053	      0.00087422	     -0.03097580	     -0.00484375	      0.01592626	     -0.01820114	     -0.00955464	      0.00629404	     -0.06571213	     -0.00141928	      0.00554607	     -0.18389845	     -0.00002392	     -0.00203976	      0.00052619	      0.00016818	      0.00016999	      0.00006800	      0.00033998	      0.00021759	      0.00065277	      0.00036718	      0.00003804	     -0.00012942	     -0.00015531	      0.00245404	      0.00860992	      0.00598951	     -0.00802761	      0.01938272	     -0.01838447	      0.00245404	      0.00860992	      0.00598951	      0.00054072	      0.01796853	     -0.00944180	      0.00389849	      0.00478787	      0.01584549	      0.00000000	      0.00749462	      0.00000000	     -0.00702936	     -0.03248477	     -0.00617801	      0.01764271	     -0.00066673	     -0.00623931	     -0.00087347	      0.01464103	     -0.00598951	      0.00241244	      0.02112966	     -0.01746941	     -0.00586473	      0.01268612	     -0.00536560	     -0.01222858	      0.02678642	     -0.02998915	     -0.02295979	      0.01418349	     -0.00719573	     -0.01522334	      0.03094580	     -0.03747603
